<svg width="134" height="15" viewBox="0 0 134 15" fill="none" xmlns="http://www.w3.org/2000/svg">
<path d="M2.61133 3.60352V11H0.957031V3.60352H2.61133ZM0.847656 1.66211C0.847656 1.41146 0.929688 1.2041 1.09375 1.04004C1.26237 0.871419 1.49479 0.787109 1.79102 0.787109C2.08268 0.787109 2.31283 0.871419 2.48145 1.04004C2.65007 1.2041 2.73438 1.41146 2.73438 1.66211C2.73438 1.9082 2.65007 2.11328 2.48145 2.27734C2.31283 2.44141 2.08268 2.52344 1.79102 2.52344C1.49479 2.52344 1.26237 2.44141 1.09375 2.27734C0.929688 2.11328 0.847656 1.9082 0.847656 1.66211ZM6.3298 5.18262V11H4.68234V3.60352H6.2341L6.3298 5.18262ZM6.03586 7.02832L5.50266 7.02148C5.50721 6.4974 5.58013 6.0166 5.72141 5.5791C5.86724 5.1416 6.06776 4.76562 6.32297 4.45117C6.58273 4.13672 6.89263 3.89518 7.25266 3.72656C7.61268 3.55339 8.01372 3.4668 8.45578 3.4668C8.81125 3.4668 9.13254 3.51693 9.41965 3.61719C9.71132 3.71289 9.95969 3.87012 10.1648 4.08887C10.3744 4.30762 10.5339 4.59245 10.6433 4.94336C10.7527 5.28971 10.8073 5.71582 10.8073 6.22168V11H9.15305V6.21484C9.15305 5.85938 9.10064 5.5791 8.99582 5.37402C8.89556 5.16439 8.74745 5.01628 8.55148 4.92969C8.36008 4.83854 8.12082 4.79297 7.83371 4.79297C7.55116 4.79297 7.29823 4.85221 7.07492 4.9707C6.85161 5.08919 6.66249 5.25098 6.50754 5.45605C6.35715 5.66113 6.24094 5.89811 6.15891 6.16699C6.07687 6.43587 6.03586 6.72298 6.03586 7.02832ZM14.9975 11H13.35V2.89258C13.35 2.34115 13.4526 1.87858 13.6577 1.50488C13.8673 1.12663 14.1658 0.841797 14.5532 0.650391C14.9405 0.454427 15.3985 0.356445 15.9272 0.356445C16.0913 0.356445 16.253 0.367839 16.4125 0.390625C16.572 0.408854 16.727 0.438477 16.8774 0.479492L16.8364 1.75098C16.7452 1.72819 16.645 1.71224 16.5356 1.70312C16.4308 1.69401 16.3168 1.68945 16.1938 1.68945C15.9431 1.68945 15.7267 1.7373 15.5444 1.83301C15.3666 1.92415 15.2299 2.05859 15.1342 2.23633C15.0431 2.41406 14.9975 2.63281 14.9975 2.89258V11ZM16.5219 3.60352V4.80664H12.2153V3.60352H16.5219ZM17.6838 7.38379V7.22656C17.6838 6.69336 17.7612 6.19889 17.9162 5.74316C18.0711 5.28288 18.2944 4.88411 18.5861 4.54688C18.8823 4.20508 19.2423 3.94076 19.6662 3.75391C20.0946 3.5625 20.5776 3.4668 21.1154 3.4668C21.6577 3.4668 22.1408 3.5625 22.5646 3.75391C22.993 3.94076 23.3553 4.20508 23.6515 4.54688C23.9477 4.88411 24.1733 5.28288 24.3283 5.74316C24.4832 6.19889 24.5607 6.69336 24.5607 7.22656V7.38379C24.5607 7.91699 24.4832 8.41146 24.3283 8.86719C24.1733 9.32292 23.9477 9.72168 23.6515 10.0635C23.3553 10.4007 22.9953 10.665 22.5714 10.8564C22.1476 11.0433 21.6668 11.1367 21.1291 11.1367C20.5867 11.1367 20.1014 11.0433 19.673 10.8564C19.2492 10.665 18.8892 10.4007 18.5929 10.0635C18.2967 9.72168 18.0711 9.32292 17.9162 8.86719C17.7612 8.41146 17.6838 7.91699 17.6838 7.38379ZM19.3312 7.22656V7.38379C19.3312 7.71647 19.3654 8.03092 19.4338 8.32715C19.5021 8.62337 19.6092 8.88314 19.755 9.10645C19.9009 9.32975 20.0877 9.50521 20.3156 9.63281C20.5435 9.76042 20.8146 9.82422 21.1291 9.82422C21.4344 9.82422 21.6987 9.76042 21.922 9.63281C22.1499 9.50521 22.3367 9.32975 22.4826 9.10645C22.6284 8.88314 22.7355 8.62337 22.8039 8.32715C22.8768 8.03092 22.9132 7.71647 22.9132 7.38379V7.22656C22.9132 6.89844 22.8768 6.58854 22.8039 6.29688C22.7355 6.00065 22.6261 5.73861 22.4757 5.51074C22.3299 5.28288 22.1431 5.10514 21.9152 4.97754C21.6919 4.84538 21.4253 4.7793 21.1154 4.7793C20.8055 4.7793 20.5366 4.84538 20.3088 4.97754C20.0854 5.10514 19.9009 5.28288 19.755 5.51074C19.6092 5.73861 19.5021 6.00065 19.4338 6.29688C19.3654 6.58854 19.3312 6.89844 19.3312 7.22656ZM37.2889 7.44531C37.2707 7.88737 37.2046 8.32715 37.0907 8.76465C36.9768 9.20215 36.8036 9.60091 36.5712 9.96094C36.3433 10.321 36.0494 10.6081 35.6893 10.8223C35.3293 11.0365 34.8964 11.1436 34.3905 11.1436C34.0852 11.1436 33.814 11.0911 33.577 10.9863C33.3401 10.877 33.1418 10.722 32.9823 10.5215C32.8274 10.321 32.7157 10.0794 32.6473 9.79688C32.579 9.50977 32.5608 9.19076 32.5927 8.83984L32.9413 4.96387H34.1376L33.7958 8.83984C33.7684 9.11784 33.773 9.3457 33.8095 9.52344C33.8505 9.70117 33.912 9.83789 33.994 9.93359C34.0761 10.0293 34.1695 10.0954 34.2743 10.1318C34.3791 10.1683 34.4839 10.1865 34.5888 10.1865C34.8348 10.1865 35.0559 10.1182 35.2518 9.98145C35.4478 9.84017 35.6141 9.64648 35.7509 9.40039C35.8921 9.14974 36.0015 8.86035 36.079 8.53223C36.161 8.2041 36.2089 7.84863 36.2225 7.46582C36.2544 6.8278 36.2248 6.23991 36.1337 5.70215C36.0425 5.15983 35.8876 4.67676 35.6688 4.25293C35.4546 3.8291 35.1744 3.47135 34.828 3.17969C34.4862 2.88346 34.0761 2.65788 33.5975 2.50293C33.119 2.34798 32.5721 2.27051 31.9569 2.27051C31.3918 2.27051 30.87 2.3571 30.3915 2.53027C29.913 2.70345 29.4846 2.9541 29.1063 3.28223C28.7281 3.60579 28.4022 3.99544 28.1288 4.45117C27.8599 4.90234 27.648 5.41048 27.493 5.97559C27.3427 6.53613 27.2538 7.1377 27.2264 7.78027C27.1945 8.45475 27.2287 9.06999 27.329 9.62598C27.4338 10.182 27.6024 10.6742 27.8348 11.1025C28.0673 11.5309 28.3589 11.891 28.7098 12.1826C29.0653 12.4788 29.4755 12.7021 29.9403 12.8525C30.4097 13.0029 30.9292 13.0781 31.4989 13.0781C31.8999 13.0781 32.3055 13.0326 32.7157 12.9414C33.1304 12.8503 33.4791 12.7295 33.7616 12.5791L34.0214 13.4883C33.7024 13.6934 33.3036 13.846 32.8251 13.9463C32.3466 14.0465 31.8954 14.0967 31.4716 14.0967C30.7652 14.0967 30.118 14.0055 29.5302 13.8232C28.9468 13.641 28.4296 13.3721 27.9784 13.0166C27.5318 12.6657 27.1604 12.235 26.8641 11.7246C26.5679 11.2142 26.3492 10.6286 26.2079 9.96777C26.0666 9.30697 26.0119 8.5778 26.0438 7.78027C26.0757 7.03288 26.1897 6.33105 26.3856 5.6748C26.5816 5.014 26.8505 4.41471 27.1923 3.87695C27.5386 3.33919 27.9488 2.87663 28.4227 2.48926C28.9013 2.09733 29.439 1.79655 30.036 1.58691C30.633 1.37728 31.2824 1.27246 31.9843 1.27246C32.6952 1.27246 33.3378 1.36589 33.912 1.55273C34.4862 1.73958 34.9898 2.01074 35.4227 2.36621C35.8602 2.72168 36.2225 3.15234 36.5096 3.6582C36.7968 4.16406 37.0064 4.736 37.1386 5.37402C37.2707 6.00749 37.3208 6.69792 37.2889 7.44531ZM30.3368 8.09473C30.3049 8.40462 30.3026 8.68034 30.33 8.92188C30.3619 9.16341 30.4188 9.36621 30.5009 9.53027C30.5874 9.69434 30.6991 9.81966 30.8358 9.90625C30.9725 9.99284 31.132 10.0361 31.3143 10.0361C31.4283 10.0361 31.549 10.0088 31.6766 9.9541C31.8088 9.89486 31.9387 9.80143 32.0663 9.67383C32.1939 9.54622 32.3147 9.3776 32.4286 9.16797C32.5425 8.95378 32.6382 8.68945 32.7157 8.375L33.2352 8.96973C33.1304 9.3252 32.9983 9.63965 32.8388 9.91309C32.6792 10.182 32.4992 10.4076 32.2987 10.5898C32.0982 10.7676 31.8817 10.9043 31.6493 11C31.4169 11.0911 31.1753 11.1367 30.9247 11.1367C30.592 11.1367 30.2958 11.0638 30.036 10.918C29.7808 10.7721 29.5712 10.5671 29.4071 10.3027C29.243 10.0339 29.1268 9.71484 29.0585 9.3457C28.9901 8.97201 28.9764 8.55501 29.0175 8.09473C29.063 7.62533 29.1496 7.1901 29.2772 6.78906C29.4094 6.38802 29.5712 6.03027 29.7626 5.71582C29.9585 5.40137 30.1796 5.13477 30.4257 4.91602C30.6718 4.69271 30.9361 4.52409 31.2186 4.41016C31.5057 4.29167 31.7997 4.23242 32.1005 4.23242C32.6154 4.23242 33.0188 4.30534 33.3104 4.45117C33.6021 4.59701 33.8778 4.7679 34.1376 4.96387L33.495 5.78418C33.3628 5.66113 33.1897 5.54492 32.9755 5.43555C32.7658 5.32617 32.5152 5.27148 32.2235 5.27148C31.9638 5.27148 31.7268 5.33073 31.5126 5.44922C31.3029 5.56771 31.1184 5.74772 30.9589 5.98926C30.7994 6.22624 30.6649 6.52018 30.5555 6.87109C30.4507 7.22201 30.3778 7.62988 30.3368 8.09473ZM43.5777 9.46875V0.5H45.232V11H43.735L43.5777 9.46875ZM38.7652 7.38379V7.24023C38.7652 6.67969 38.8313 6.16927 38.9635 5.70898C39.0956 5.24414 39.287 4.84538 39.5377 4.5127C39.7883 4.17546 40.0937 3.91797 40.4537 3.74023C40.8137 3.55794 41.2193 3.4668 41.6705 3.4668C42.1171 3.4668 42.5091 3.55339 42.8463 3.72656C43.1835 3.89974 43.4706 4.14811 43.7076 4.47168C43.9446 4.79069 44.1337 5.1735 44.275 5.62012C44.4163 6.06217 44.5165 6.55436 44.5758 7.09668V7.55469C44.5165 8.08333 44.4163 8.56641 44.275 9.00391C44.1337 9.44141 43.9446 9.81966 43.7076 10.1387C43.4706 10.4577 43.1813 10.7038 42.8395 10.877C42.5022 11.0501 42.108 11.1367 41.6568 11.1367C41.2102 11.1367 40.8069 11.0433 40.4469 10.8564C40.0914 10.6696 39.7883 10.4076 39.5377 10.0703C39.287 9.73307 39.0956 9.33659 38.9635 8.88086C38.8313 8.42057 38.7652 7.92155 38.7652 7.38379ZM40.4127 7.24023V7.38379C40.4127 7.72103 40.4423 8.03548 40.5016 8.32715C40.5654 8.61882 40.6633 8.8763 40.7955 9.09961C40.9277 9.31836 41.0986 9.49154 41.3082 9.61914C41.5224 9.74219 41.7776 9.80371 42.0738 9.80371C42.4475 9.80371 42.7551 9.72168 42.9967 9.55762C43.2382 9.39355 43.4273 9.17253 43.5641 8.89453C43.7053 8.61198 43.801 8.29753 43.8512 7.95117V6.71387C43.8238 6.44499 43.7669 6.19434 43.6803 5.96191C43.5982 5.72949 43.4866 5.52669 43.3453 5.35352C43.204 5.17578 43.0286 5.03906 42.8189 4.94336C42.6139 4.8431 42.3701 4.79297 42.0875 4.79297C41.7867 4.79297 41.5315 4.85677 41.3219 4.98438C41.1122 5.11198 40.9391 5.28743 40.8023 5.51074C40.6702 5.73405 40.5722 5.99382 40.5084 6.29004C40.4446 6.58626 40.4127 6.90299 40.4127 7.24023ZM50.4954 11.1367C49.9486 11.1367 49.4541 11.0479 49.012 10.8701C48.5745 10.6878 48.2008 10.4349 47.8909 10.1113C47.5856 9.78776 47.3509 9.40723 47.1868 8.96973C47.0228 8.53223 46.9407 8.06055 46.9407 7.55469V7.28125C46.9407 6.70247 47.0251 6.17839 47.1937 5.70898C47.3623 5.23958 47.597 4.83854 47.8978 4.50586C48.1986 4.16862 48.554 3.91113 48.9642 3.7334C49.3743 3.55566 49.8187 3.4668 50.2972 3.4668C50.8258 3.4668 51.2884 3.55566 51.6849 3.7334C52.0814 3.91113 52.4095 4.16178 52.6693 4.48535C52.9336 4.80436 53.1295 5.1849 53.2571 5.62695C53.3893 6.06901 53.4554 6.55664 53.4554 7.08984V7.79395H47.7405V6.61133H51.8284V6.48145C51.8193 6.18522 51.7601 5.90723 51.6507 5.64746C51.5459 5.3877 51.3841 5.17806 51.1654 5.01855C50.9466 4.85905 50.6549 4.7793 50.2904 4.7793C50.0169 4.7793 49.7731 4.83854 49.5589 4.95703C49.3493 5.07096 49.1738 5.2373 49.0325 5.45605C48.8913 5.6748 48.7819 5.93913 48.7044 6.24902C48.6315 6.55436 48.595 6.89844 48.595 7.28125V7.55469C48.595 7.87826 48.6383 8.17904 48.7249 8.45703C48.8161 8.73047 48.9482 8.96973 49.1214 9.1748C49.2946 9.37988 49.5042 9.54167 49.7503 9.66016C49.9964 9.77409 50.2767 9.83105 50.5911 9.83105C50.9876 9.83105 51.3408 9.7513 51.6507 9.5918C51.9606 9.43229 52.2295 9.20671 52.4573 8.91504L53.3255 9.75586C53.166 9.98828 52.9586 10.2116 52.7034 10.4258C52.4482 10.6354 52.1361 10.8063 51.7669 10.9385C51.4023 11.0706 50.9785 11.1367 50.4954 11.1367ZM57.3311 9.69434L59.1426 3.60352H60.8516L58.2813 11H57.2149L57.3311 9.69434ZM55.9434 3.60352L57.7891 9.72168L57.878 11H56.8116L54.2276 3.60352H55.9434ZM66.2996 8.99707C66.2996 8.83301 66.2586 8.6849 66.1765 8.55273C66.0945 8.41602 65.9373 8.29297 65.7048 8.18359C65.477 8.07422 65.1397 7.97396 64.6931 7.88281C64.3012 7.79622 63.9412 7.69368 63.613 7.5752C63.2895 7.45215 63.0115 7.30404 62.7791 7.13086C62.5466 6.95768 62.3666 6.7526 62.239 6.51562C62.1114 6.27865 62.0476 6.00521 62.0476 5.69531C62.0476 5.39453 62.1137 5.1097 62.2459 4.84082C62.378 4.57194 62.5672 4.33496 62.8132 4.12988C63.0593 3.9248 63.3578 3.76302 63.7088 3.64453C64.0642 3.52604 64.4607 3.4668 64.8982 3.4668C65.518 3.4668 66.0489 3.57161 66.491 3.78125C66.9376 3.98633 67.2794 4.2666 67.5164 4.62207C67.7533 4.97298 67.8718 5.36947 67.8718 5.81152H66.2244C66.2244 5.61556 66.1742 5.43327 66.074 5.26465C65.9783 5.09147 65.8324 4.95247 65.6365 4.84766C65.4405 4.73828 65.1944 4.68359 64.8982 4.68359C64.6157 4.68359 64.381 4.72917 64.1941 4.82031C64.0118 4.9069 63.8751 5.02083 63.7839 5.16211C63.6974 5.30339 63.6541 5.45833 63.6541 5.62695C63.6541 5.75 63.6769 5.86165 63.7224 5.96191C63.7726 6.05762 63.8546 6.14648 63.9685 6.22852C64.0824 6.30599 64.2374 6.37891 64.4334 6.44727C64.6339 6.51562 64.8845 6.58171 65.1853 6.64551C65.7504 6.764 66.2358 6.91667 66.6414 7.10352C67.0515 7.28581 67.366 7.52279 67.5847 7.81445C67.8035 8.10156 67.9129 8.46615 67.9129 8.9082C67.9129 9.23633 67.8422 9.53711 67.7009 9.81055C67.5642 10.0794 67.3637 10.3141 67.0994 10.5146C66.8351 10.7106 66.5183 10.8633 66.1492 10.9727C65.7846 11.082 65.3744 11.1367 64.9187 11.1367C64.2488 11.1367 63.6814 11.0182 63.2166 10.7812C62.7517 10.5397 62.3985 10.2321 62.157 9.8584C61.92 9.48014 61.8015 9.08822 61.8015 8.68262H63.3943C63.4125 8.98796 63.4968 9.23177 63.6472 9.41406C63.8022 9.5918 63.9936 9.72168 64.2214 9.80371C64.4539 9.88118 64.6931 9.91992 64.9392 9.91992C65.2354 9.91992 65.4838 9.88118 65.6843 9.80371C65.8849 9.72168 66.0375 9.6123 66.1423 9.47559C66.2472 9.33431 66.2996 9.1748 66.2996 8.99707ZM73.0259 3.60352V4.80664H68.8559V3.60352H73.0259ZM70.0591 1.79199H71.7065V8.95605C71.7065 9.18392 71.7384 9.35938 71.8022 9.48242C71.8706 9.60091 71.964 9.68066 72.0825 9.72168C72.201 9.7627 72.34 9.7832 72.4995 9.7832C72.6134 9.7832 72.7228 9.77637 72.8276 9.7627C72.9324 9.74902 73.0167 9.73535 73.0805 9.72168L73.0874 10.9795C72.9507 11.0205 72.7912 11.057 72.6089 11.0889C72.4311 11.1208 72.2261 11.1367 71.9936 11.1367C71.6154 11.1367 71.2804 11.0706 70.9887 10.9385C70.6971 10.8018 70.4692 10.5807 70.3052 10.2754C70.1411 9.97005 70.0591 9.56445 70.0591 9.05859V1.79199ZM79.0275 9.25684V3.60352H80.6818V11H79.1232L79.0275 9.25684ZM79.26 7.71875L79.8137 7.70508C79.8137 8.20182 79.759 8.65983 79.6496 9.0791C79.5402 9.49382 79.3716 9.85612 79.1438 10.166C78.9159 10.4714 78.6242 10.7106 78.2688 10.8838C77.9133 11.0524 77.4872 11.1367 76.9904 11.1367C76.6304 11.1367 76.3 11.0843 75.9992 10.9795C75.6984 10.8747 75.4387 10.7129 75.2199 10.4941C75.0057 10.2754 74.8394 9.99056 74.7209 9.63965C74.6024 9.28874 74.5432 8.86947 74.5432 8.38184V3.60352H76.1906V8.39551C76.1906 8.66439 76.2225 8.88997 76.2863 9.07227C76.3501 9.25 76.4367 9.39355 76.5461 9.50293C76.6555 9.6123 76.7831 9.68978 76.9289 9.73535C77.0747 9.78092 77.2297 9.80371 77.3938 9.80371C77.8632 9.80371 78.2323 9.71257 78.5012 9.53027C78.7746 9.34342 78.9683 9.09277 79.0822 8.77832C79.2007 8.46387 79.26 8.11068 79.26 7.71875ZM87.162 9.46875V0.5H88.8163V11H87.3193L87.162 9.46875ZM82.3495 7.38379V7.24023C82.3495 6.67969 82.4156 6.16927 82.5478 5.70898C82.6799 5.24414 82.8713 4.84538 83.122 4.5127C83.3726 4.17546 83.678 3.91797 84.038 3.74023C84.398 3.55794 84.8036 3.4668 85.2548 3.4668C85.7014 3.4668 86.0933 3.55339 86.4306 3.72656C86.7678 3.89974 87.0549 4.14811 87.2919 4.47168C87.5289 4.79069 87.718 5.1735 87.8593 5.62012C88.0006 6.06217 88.1008 6.55436 88.1601 7.09668V7.55469C88.1008 8.08333 88.0006 8.56641 87.8593 9.00391C87.718 9.44141 87.5289 9.81966 87.2919 10.1387C87.0549 10.4577 86.7655 10.7038 86.4238 10.877C86.0865 11.0501 85.6923 11.1367 85.2411 11.1367C84.7945 11.1367 84.3912 11.0433 84.0312 10.8564C83.6757 10.6696 83.3726 10.4076 83.122 10.0703C82.8713 9.73307 82.6799 9.33659 82.5478 8.88086C82.4156 8.42057 82.3495 7.92155 82.3495 7.38379ZM83.997 7.24023V7.38379C83.997 7.72103 84.0266 8.03548 84.0859 8.32715C84.1497 8.61882 84.2476 8.8763 84.3798 9.09961C84.512 9.31836 84.6829 9.49154 84.8925 9.61914C85.1067 9.74219 85.3619 9.80371 85.6581 9.80371C86.0318 9.80371 86.3394 9.72168 86.581 9.55762C86.8225 9.39355 87.0116 9.17253 87.1484 8.89453C87.2896 8.61198 87.3853 8.29753 87.4355 7.95117V6.71387C87.4081 6.44499 87.3512 6.19434 87.2646 5.96191C87.1825 5.72949 87.0709 5.52669 86.9296 5.35352C86.7883 5.17578 86.6129 5.03906 86.4032 4.94336C86.1982 4.8431 85.9544 4.79297 85.6718 4.79297C85.371 4.79297 85.1158 4.85677 84.9062 4.98438C84.6965 5.11198 84.5234 5.28743 84.3866 5.51074C84.2545 5.73405 84.1565 5.99382 84.0927 6.29004C84.0289 6.58626 83.997 6.90299 83.997 7.24023ZM92.5827 3.60352V11H90.9284V3.60352H92.5827ZM90.819 1.66211C90.819 1.41146 90.901 1.2041 91.0651 1.04004C91.2337 0.871419 91.4661 0.787109 91.7623 0.787109C92.054 0.787109 92.2842 0.871419 92.4528 1.04004C92.6214 1.2041 92.7057 1.41146 92.7057 1.66211C92.7057 1.9082 92.6214 2.11328 92.4528 2.27734C92.2842 2.44141 92.054 2.52344 91.7623 2.52344C91.4661 2.52344 91.2337 2.44141 91.0651 2.27734C90.901 2.11328 90.819 1.9082 90.819 1.66211ZM94.3529 7.38379V7.22656C94.3529 6.69336 94.4304 6.19889 94.5853 5.74316C94.7403 5.28288 94.9636 4.88411 95.2552 4.54688C95.5515 4.20508 95.9115 3.94076 96.3353 3.75391C96.7637 3.5625 97.2468 3.4668 97.7845 3.4668C98.3268 3.4668 98.8099 3.5625 99.2337 3.75391C99.6621 3.94076 100.024 4.20508 100.321 4.54688C100.617 4.88411 100.842 5.28288 100.997 5.74316C101.152 6.19889 101.23 6.69336 101.23 7.22656V7.38379C101.23 7.91699 101.152 8.41146 100.997 8.86719C100.842 9.32292 100.617 9.72168 100.321 10.0635C100.024 10.4007 99.6644 10.665 99.2406 10.8564C98.8168 11.0433 98.336 11.1367 97.7982 11.1367C97.2559 11.1367 96.7705 11.0433 96.3421 10.8564C95.9183 10.665 95.5583 10.4007 95.2621 10.0635C94.9658 9.72168 94.7403 9.32292 94.5853 8.86719C94.4304 8.41146 94.3529 7.91699 94.3529 7.38379ZM96.0004 7.22656V7.38379C96.0004 7.71647 96.0345 8.03092 96.1029 8.32715C96.1712 8.62337 96.2783 8.88314 96.4242 9.10645C96.57 9.32975 96.7569 9.50521 96.9847 9.63281C97.2126 9.76042 97.4837 9.82422 97.7982 9.82422C98.1035 9.82422 98.3679 9.76042 98.5912 9.63281C98.819 9.50521 99.0059 9.32975 99.1517 9.10645C99.2976 8.88314 99.4046 8.62337 99.473 8.32715C99.5459 8.03092 99.5824 7.71647 99.5824 7.38379V7.22656C99.5824 6.89844 99.5459 6.58854 99.473 6.29688C99.4046 6.00065 99.2953 5.73861 99.1449 5.51074C98.999 5.28288 98.8122 5.10514 98.5843 4.97754C98.361 4.84538 98.0944 4.7793 97.7845 4.7793C97.4746 4.7793 97.2058 4.84538 96.9779 4.97754C96.7546 5.10514 96.57 5.28288 96.4242 5.51074C96.2783 5.73861 96.1712 6.00065 96.1029 6.29688C96.0345 6.58854 96.0004 6.89844 96.0004 7.22656ZM102.959 10.1797C102.959 9.92448 103.046 9.71029 103.219 9.53711C103.392 9.35938 103.627 9.27051 103.923 9.27051C104.224 9.27051 104.458 9.35938 104.627 9.53711C104.8 9.71029 104.887 9.92448 104.887 10.1797C104.887 10.4349 104.8 10.6491 104.627 10.8223C104.458 10.9954 104.224 11.082 103.923 11.082C103.627 11.082 103.392 10.9954 103.219 10.8223C103.046 10.6491 102.959 10.4349 102.959 10.1797ZM110.089 9.82422C110.358 9.82422 110.599 9.77181 110.813 9.66699C111.032 9.55762 111.207 9.40723 111.34 9.21582C111.476 9.02441 111.552 8.80339 111.565 8.55273H113.117C113.108 9.03125 112.967 9.46647 112.693 9.8584C112.42 10.2503 112.057 10.5625 111.606 10.7949C111.155 11.0228 110.656 11.1367 110.109 11.1367C109.544 11.1367 109.052 11.041 108.633 10.8496C108.213 10.6536 107.865 10.3848 107.587 10.043C107.309 9.70117 107.099 9.30697 106.958 8.86035C106.821 8.41374 106.753 7.93522 106.753 7.4248V7.18555C106.753 6.67513 106.821 6.19661 106.958 5.75C107.099 5.29883 107.309 4.90234 107.587 4.56055C107.865 4.21875 108.213 3.95215 108.633 3.76074C109.052 3.56478 109.542 3.4668 110.102 3.4668C110.695 3.4668 111.214 3.58529 111.661 3.82227C112.108 4.05469 112.458 4.38053 112.714 4.7998C112.973 5.21452 113.108 5.69759 113.117 6.24902H111.565C111.552 5.97559 111.483 5.72949 111.36 5.51074C111.242 5.28743 111.073 5.1097 110.854 4.97754C110.64 4.84538 110.383 4.7793 110.082 4.7793C109.749 4.7793 109.473 4.84766 109.255 4.98438C109.036 5.11654 108.865 5.29883 108.742 5.53125C108.619 5.75911 108.53 6.0166 108.475 6.30371C108.425 6.58626 108.4 6.88021 108.4 7.18555V7.4248C108.4 7.73014 108.425 8.02637 108.475 8.31348C108.526 8.60059 108.612 8.85807 108.735 9.08594C108.863 9.30924 109.036 9.48926 109.255 9.62598C109.473 9.75814 109.751 9.82422 110.089 9.82422ZM114.347 7.38379V7.22656C114.347 6.69336 114.425 6.19889 114.58 5.74316C114.735 5.28288 114.958 4.88411 115.25 4.54688C115.546 4.20508 115.906 3.94076 116.33 3.75391C116.758 3.5625 117.241 3.4668 117.779 3.4668C118.321 3.4668 118.804 3.5625 119.228 3.75391C119.656 3.94076 120.019 4.20508 120.315 4.54688C120.611 4.88411 120.837 5.28288 120.992 5.74316C121.147 6.19889 121.224 6.69336 121.224 7.22656V7.38379C121.224 7.91699 121.147 8.41146 120.992 8.86719C120.837 9.32292 120.611 9.72168 120.315 10.0635C120.019 10.4007 119.659 10.665 119.235 10.8564C118.811 11.0433 118.33 11.1367 117.793 11.1367C117.25 11.1367 116.765 11.0433 116.336 10.8564C115.913 10.665 115.553 10.4007 115.256 10.0635C114.96 9.72168 114.735 9.32292 114.58 8.86719C114.425 8.41146 114.347 7.91699 114.347 7.38379ZM115.995 7.22656V7.38379C115.995 7.71647 116.029 8.03092 116.097 8.32715C116.166 8.62337 116.273 8.88314 116.418 9.10645C116.564 9.32975 116.751 9.50521 116.979 9.63281C117.207 9.76042 117.478 9.82422 117.793 9.82422C118.098 9.82422 118.362 9.76042 118.585 9.63281C118.813 9.50521 119 9.32975 119.146 9.10645C119.292 8.88314 119.399 8.62337 119.467 8.32715C119.54 8.03092 119.577 7.71647 119.577 7.38379V7.22656C119.577 6.89844 119.54 6.58854 119.467 6.29688C119.399 6.00065 119.29 5.73861 119.139 5.51074C118.993 5.28288 118.807 5.10514 118.579 4.97754C118.355 4.84538 118.089 4.7793 117.779 4.7793C117.469 4.7793 117.2 4.84538 116.972 4.97754C116.749 5.10514 116.564 5.28288 116.418 5.51074C116.273 5.73861 116.166 6.00065 116.097 6.29688C116.029 6.58854 115.995 6.89844 115.995 7.22656ZM124.532 5.10742V11H122.885V3.60352H124.437L124.532 5.10742ZM124.266 7.02832L123.705 7.02148C123.705 6.51107 123.769 6.03939 123.897 5.60645C124.024 5.1735 124.211 4.79753 124.457 4.47852C124.703 4.15495 125.009 3.90658 125.373 3.7334C125.742 3.55566 126.169 3.4668 126.652 3.4668C126.989 3.4668 127.296 3.51693 127.574 3.61719C127.857 3.71289 128.101 3.86556 128.306 4.0752C128.516 4.28483 128.675 4.55371 128.784 4.88184C128.898 5.20996 128.955 5.60645 128.955 6.07129V11H127.308V6.21484C127.308 5.85482 127.253 5.57227 127.144 5.36719C127.039 5.16211 126.886 5.01628 126.686 4.92969C126.49 4.83854 126.255 4.79297 125.982 4.79297C125.672 4.79297 125.407 4.85221 125.189 4.9707C124.975 5.08919 124.799 5.25098 124.662 5.45605C124.526 5.66113 124.425 5.89811 124.362 6.16699C124.298 6.43587 124.266 6.72298 124.266 7.02832ZM128.853 6.59082L128.08 6.76172C128.08 6.3151 128.142 5.89355 128.265 5.49707C128.392 5.09603 128.577 4.74512 128.819 4.44434C129.065 4.139 129.368 3.89974 129.728 3.72656C130.088 3.55339 130.5 3.4668 130.965 3.4668C131.343 3.4668 131.681 3.51921 131.977 3.62402C132.278 3.72428 132.533 3.88379 132.742 4.10254C132.952 4.32129 133.112 4.60612 133.221 4.95703C133.33 5.30339 133.385 5.72266 133.385 6.21484V11H131.731V6.20801C131.731 5.83431 131.676 5.54492 131.567 5.33984C131.462 5.13477 131.311 4.99349 131.115 4.91602C130.92 4.83398 130.685 4.79297 130.411 4.79297C130.156 4.79297 129.931 4.84082 129.735 4.93652C129.543 5.02767 129.381 5.15755 129.249 5.32617C129.117 5.49023 129.017 5.67936 128.948 5.89355C128.885 6.10775 128.853 6.34017 128.853 6.59082Z" fill="#2196F3"/>
</svg>
